<svg width="62" height="60" viewBox="0 0 62 60" fill="none" xmlns="http://www.w3.org/2000/svg">
<path d="M1 33.5781V41.875L24.5078 55.2422L59.5391 35.4219L58.1562 34.5L24.5078 53.3984L1.92188 41.4141L1.83093 34.0669L1 33.5781Z" fill="white"/>
<path d="M35.1094 14.2188L1 33.5781L1.83093 34.0669L24.5078 47.4062L58.1562 28.6156L60 27.5859L35.1094 14.2188Z" fill="white"/>
<path d="M1 33.5781L35.1094 14.2188L60 27.5859L58.1562 28.6156M1 33.5781V41.875L24.5078 55.2422L59.5391 35.4219L58.1562 34.5M1 33.5781L1.83093 34.0669M58.1562 34.5V28.6156M58.1562 34.5L24.5078 53.3984L1.92188 41.4141L1.83093 34.0669M58.1562 28.6156L24.5078 47.4062L1.83093 34.0669" stroke="white"/>
<path d="M38.7969 31.2734C38.7969 31.2734 38.1213 32.3508 37.875 33.1172C37.3792 34.6595 36.7608 36.0895 37.875 37.2656C38.4286 37.85 39.7188 38.1875 39.7188 38.1875C39.7188 38.1875 40.7896 37.188 41.1016 36.3438C41.6046 34.9825 41.4898 33.8332 40.6406 32.6562C40.114 31.9264 38.7969 31.2734 38.7969 31.2734Z" fill="#F8F8F8"/>
<path d="M37.1836 23.668L26.8125 30.3516L14.8281 22.7962V28.9688C14.8281 28.9688 17.1328 34.0391 26.3516 34.0391C33.2656 34.0391 37.875 30.3516 37.875 30.3516L38.1365 28.1604L37.1836 23.668Z" fill="#FAFAFA"/>
<path d="M26.8125 5L5.60938 16.9844L14.8281 22.7962L26.8125 30.3516L37.1836 23.668L47.5547 16.9844L26.8125 5Z" fill="#F8F8F8"/>
<path d="M26.8125 16.9844L37.1836 23.668M37.1836 23.668L26.8125 30.3516L14.8281 22.7962M37.1836 23.668L47.5547 16.9844L26.8125 5L5.60938 16.9844L14.8281 22.7962M37.1836 23.668L38.1365 28.1604M38.7969 31.2734C38.7969 31.2734 38.1213 32.3508 37.875 33.1172C37.3792 34.6595 36.7608 36.0895 37.875 37.2656C38.4286 37.85 39.7188 38.1875 39.7188 38.1875C39.7188 38.1875 40.7896 37.188 41.1016 36.3438C41.6046 34.9825 41.4898 33.8332 40.6406 32.6562C40.114 31.9264 38.7969 31.2734 38.7969 31.2734ZM38.7969 31.2734L38.1365 28.1604M14.8281 22.7962V28.9688C14.8281 28.9688 17.1328 34.0391 26.3516 34.0391C33.2656 34.0391 37.875 30.3516 37.875 30.3516L38.1365 28.1604" stroke="#447DCE"/>
</svg>
