<svg width="1296" height="625" viewBox="0 0 1296 625" fill="none" xmlns="http://www.w3.org/2000/svg">
<g clip-path="url(#clip0_68_273)">
<path d="M995.222 169.015C992.13 167.648 989.625 165.765 987.796 163.787C987.113 163.049 986.578 162.357 986.162 161.741C1000.41 146.535 1016.69 133.2 1034.63 122.151L995.305 58.2883L1034.63 122.151C1075.31 97.0989 1122.64 84.9833 1170.36 87.4064C1218.08 89.8295 1263.94 106.677 1301.87 135.722C1339.81 164.767 1368.04 204.641 1382.83 250.074C1397.62 295.506 1398.27 344.357 1384.7 390.169C1371.13 435.98 1343.98 476.595 1306.83 506.644C1269.69 536.693 1224.29 554.76 1176.66 558.458C1160.21 559.735 1145.04 556.27 1125.25 547.008C1125.1 546.764 1124.78 546.189 1124.5 545.183C1123.67 542.161 1123.98 538.135 1125.78 534.772L1134.99 517.607C1135.74 517.209 1136.88 516.662 1138.55 516.014C1146.09 513.088 1157.59 510.821 1172.87 509.635C1210.62 506.704 1246.6 492.385 1276.04 468.571C1305.48 444.756 1327 412.568 1337.75 376.261C1348.5 339.954 1347.99 301.238 1336.27 265.232C1324.54 229.225 1302.17 197.624 1272.11 174.605C1242.04 151.586 1205.7 138.234 1167.88 136.313C1130.06 134.393 1092.55 143.995 1060.31 163.85C1046.58 172.304 1035.61 177.598 1027.3 179.954C1024.91 180.632 1023.32 180.909 1022.38 181.017L995.222 169.015ZM1133.84 518.321C1133.83 518.319 1133.89 518.273 1134.01 518.188C1133.9 518.28 1133.84 518.322 1133.84 518.321ZM1021.3 181.074C1021.3 181.07 1021.38 181.068 1021.53 181.082C1021.37 181.085 1021.3 181.078 1021.3 181.074ZM1024.42 181.92C1024.43 181.923 1024.44 181.927 1024.44 181.931L994.124 250.529L1024.44 181.931L1024.42 181.92Z" fill="#5285CD" stroke="#5285CD" stroke-width="150"/>
<path d="M49.3182 146.941L45.5146 221.844L49.3181 146.941C13.8724 145.141 -21.2849 154.141 -51.506 172.75C-63.5722 180.18 -72.6699 184.483 -79.0801 186.3C-79.5748 186.44 -80.0099 186.554 -80.3885 186.646L-102.25 176.983C-91.4084 166.319 -79.3488 156.849 -66.2607 148.789C-31.1892 127.193 9.61074 116.749 50.7453 118.838C91.8797 120.926 131.412 135.45 164.115 160.488C196.819 185.525 221.154 219.899 233.903 259.063C246.652 298.228 247.215 340.34 235.517 379.831C223.82 419.323 200.413 454.335 168.39 480.238C136.368 506.141 97.238 521.716 56.174 524.904C44.1164 525.84 32.7295 523.64 17.6015 516.967C17.6963 516.291 17.8989 515.705 18.1492 515.239L25.1513 502.19C25.2641 502.145 25.3818 502.099 25.5045 502.051C31.2188 499.833 40.6463 497.885 53.9961 496.849L48.1915 422.074L53.9962 496.849C89.381 494.102 123.099 480.681 150.693 458.36C178.287 436.039 198.457 405.869 208.537 371.84C218.616 337.81 218.131 301.522 207.145 267.774C196.159 234.026 175.19 204.406 147.009 182.831C118.829 161.255 84.7638 148.741 49.3182 146.941ZM-82.427 187.022C-82.426 187.021 -82.3833 187.016 -82.3016 187.013C-82.387 187.022 -82.4279 187.024 -82.427 187.022ZM22.9236 503.228C22.9224 503.228 22.9495 503.21 23.0079 503.176C22.9539 503.212 22.9247 503.229 22.9236 503.228Z" fill="#5285CD" stroke="#5285CD" stroke-width="150"/>
<path d="M1042.98 166.599C1036.98 198.202 1025.81 228.787 1009.76 257.081C980.306 308.989 935.795 350.737 882.108 376.806C828.421 402.875 768.087 412.037 709.082 403.081C650.077 394.124 595.179 367.472 551.646 326.646C508.113 285.82 477.995 232.745 465.273 174.435C452.552 116.125 457.826 55.3278 480.398 0.0798844C502.971 -55.168 541.779 -102.265 591.692 -134.984C611.372 -147.884 632.49 -153.379 661.539 -154.968C664.562 -155.134 668.372 -154.193 672.552 -149.897C677.051 -145.272 680.113 -138.369 680.188 -131.09L680.493 -101.375C680.27 -100.456 679.144 -97.3428 674.353 -91.6291C666.89 -82.7275 654.895 -72.8865 639.16 -62.5716C603.905 -39.4612 576.494 -6.19565 560.55 32.8274C544.606 71.8505 540.881 114.793 549.867 155.979C558.852 197.165 580.125 234.654 610.874 263.49C641.622 292.326 680.398 311.152 722.075 317.478C763.752 323.804 806.368 317.332 844.288 298.919C882.209 280.506 913.648 251.018 934.45 214.354C944.146 197.265 953.298 184.147 961.981 175.573C966.065 171.541 969.059 169.516 970.818 168.573C971.649 168.128 972.148 167.953 972.342 167.893C972.516 167.839 972.56 167.84 972.562 167.84L1028.63 162.972C1035.64 162.363 1040.75 164.783 1042.98 166.599ZM680.539 -101.668C680.546 -101.669 680.541 -101.584 680.501 -101.409C680.511 -101.579 680.531 -101.667 680.539 -101.668ZM1043.85 167.445C1043.86 167.457 1043.86 167.463 1043.86 167.463C1043.86 167.464 1043.86 167.458 1043.85 167.445Z" fill="#5285CD" stroke="#5285CD" stroke-width="150"/>
</g>
<defs>
<clipPath id="clip0_68_273">
<rect width="1296" height="625" fill="white"/>
</clipPath>
</defs>
</svg>
