<svg width="62" height="60" viewBox="0 0 62 60" fill="none" xmlns="http://www.w3.org/2000/svg">
<path d="M60.9999 33.4795V32.6575L56.8903 38L36.7533 50.3288V51.5616L57.7122 39.2329L60.9999 33.4795Z" fill="white"/>
<path d="M15.7944 38V39.2329L36.7533 51.5616V50.3288L15.7944 38Z" fill="white"/>
<path d="M40.452 22.7945L38.8081 26.0822L56.0684 35.9452L58.1232 32.6575L40.452 22.7945Z" fill="white"/>
<path d="M15.7944 38V39.2329L36.7533 51.5616M15.7944 38L35.9314 26.0822M15.7944 38L36.7533 50.3288M35.9314 26.0822L39.2191 20.3288L60.9999 32.6575M35.9314 26.0822L56.8903 38M60.9999 32.6575V33.4795L57.7122 39.2329L36.7533 51.5616M60.9999 32.6575L56.8903 38M36.7533 51.5616V50.3288M36.7533 50.3288L56.8903 38M40.452 22.7945L38.8081 26.0822L56.0684 35.9452L58.1232 32.6575L40.452 22.7945Z" stroke="white"/>
<path d="M36.3423 28.5479L34.6985 29.7808L36.7533 31.0137L38.3971 29.7808L36.3423 28.5479Z" fill="white" stroke="white"/>
<path d="M31.4107 31.4247L29.7668 32.6575L31.8216 33.8904L33.4655 32.6575L31.4107 31.4247Z" fill="white" stroke="white"/>
<path d="M26.8904 34.3014L25.2466 35.5342L27.3014 36.7671L28.9452 35.5342L26.8904 34.3014Z" fill="white" stroke="white"/>
<path d="M21.9588 36.7671L20.3149 38L22.3697 39.2329L24.0136 38L21.9588 36.7671Z" fill="white" stroke="white"/>
<path d="M40.8628 31.0137L39.219 32.2466L41.2738 33.4795L42.9176 32.2466L40.8628 31.0137Z" fill="white" stroke="white"/>
<path d="M35.5205 33.8904L33.8767 35.1233L35.9315 36.3561L37.5753 35.1233L35.5205 33.8904Z" fill="white" stroke="white"/>
<path d="M31.4107 36.7671L29.7668 38L31.8216 39.2329L33.4655 38L31.4107 36.7671Z" fill="white" stroke="white"/>
<path d="M26.4793 39.2329L24.8354 40.4658L26.8902 41.6986L28.5341 40.4658L26.4793 39.2329Z" fill="white" stroke="white"/>
<path d="M45.7945 34.3014L44.1506 35.5342L46.2054 36.7671L47.8493 35.5342L45.7945 34.3014Z" fill="white" stroke="white"/>
<path d="M40.4519 36.7671L38.8081 38L40.8629 39.2329L42.5067 38L40.4519 36.7671Z" fill="white" stroke="white"/>
<path d="M36.3423 40.0548L34.6985 41.2877L36.7533 42.5206L38.3971 41.2877L36.3423 40.0548Z" fill="white" stroke="white"/>
<path d="M31.4107 42.5205L29.7668 43.7534L31.8216 44.9863L33.4655 43.7534L31.4107 42.5205Z" fill="white" stroke="white"/>
<path d="M50.7259 36.7671L49.082 38L51.1368 39.2329L52.7807 38L50.7259 36.7671Z" fill="white" stroke="white"/>
<path d="M45.3836 39.2329L43.7397 40.4658L45.7945 41.6986L47.4384 40.4658L45.3836 39.2329Z" fill="white" stroke="white"/>
<path d="M41.2737 42.5205L39.6299 43.7534L41.6847 44.9863L43.3285 43.7534L41.2737 42.5205Z" fill="white" stroke="white"/>
<path d="M36.3423 44.9863L34.6985 46.2192L36.7533 47.4521L38.3971 46.2192L36.3423 44.9863Z" fill="white" stroke="white"/>
<path d="M5.93151 36.3562L1 33.8904V42.1096L5.93151 44.5753V36.3562Z" fill="white"/>
<path d="M1 33.8904L5.93151 31.0137L10.4521 33.4795M1 33.8904L5.93151 36.3562M1 33.8904V42.1096L5.93151 44.5753M10.4521 33.4795L5.93151 36.3562M10.4521 33.4795V41.2877L5.93151 44.5753M5.93151 36.3562V44.5753" stroke="white"/>
<path d="M16.2054 24.4384L11.2739 21.9726V35.5342L16.2054 38V24.4384Z" fill="white"/>
<path d="M11.2739 21.9726L16.2054 19.0959L20.726 21.5616M11.2739 21.9726L16.2054 24.4384M11.2739 21.9726V35.5342L16.2054 38M20.726 21.5616L16.2054 24.4384M20.726 21.5616V34.7123L16.2054 38M16.2054 24.4384V38" stroke="white"/>
<path d="M26.0687 13.3425L21.1372 10.8767V29.3699L26.0687 31.8356V13.3425Z" fill="white"/>
<path d="M21.1372 10.8767L26.0687 8L30.5893 10.4658M21.1372 10.8767L26.0687 13.3425M21.1372 10.8767V29.3699L26.0687 31.8356M30.5893 10.4658L26.0687 13.3425M30.5893 10.4658V28.5479L26.0687 31.8356M26.0687 13.3425V31.8356" stroke="white"/>
</svg>
